<svg width="8" height="15" viewBox="0 0 8 15" fill="none" xmlns="http://www.w3.org/2000/svg">
<path d="M7.29063 14.2108C7.38436 14.1178 7.45875 14.0072 7.50952 13.8854C7.56029 13.7635 7.58643 13.6328 7.58643 13.5008C7.58643 13.3688 7.56029 13.2381 7.50952 13.1162C7.45875 12.9944 7.38436 12.8838 7.29063 12.7908L2.71064 8.21079C2.61691 8.11783 2.54251 8.00723 2.49175 7.88537C2.44098 7.76351 2.41484 7.63281 2.41484 7.50079C2.41484 7.36878 2.44098 7.23808 2.49175 7.11622C2.54251 6.99436 2.61691 6.88376 2.71064 6.79079L7.29063 2.21079C7.38436 2.11783 7.45875 2.00723 7.50952 1.88537C7.56029 1.76351 7.58643 1.6328 7.58643 1.50079C7.58643 1.36878 7.56029 1.23808 7.50952 1.11622C7.45875 0.994357 7.38436 0.883756 7.29063 0.790792C7.10327 0.604542 6.84981 0.5 6.58563 0.5C6.32144 0.5 6.06799 0.604542 5.88063 0.790792L1.29064 5.38079C0.728839 5.94329 0 6.70579 0 7.50079C0 8.2958 0.728839 9.05829 1.29064 9.62079L5.88063 14.2108C6.06799 14.397 6.32144 14.5016 6.58563 14.5016C6.84981 14.5016 7.10327 14.397 7.29063 14.2108Z" fill="#EC9B94"/>
</svg>
