<svg width="17" height="18" viewBox="0 0 17 18" fill="none" xmlns="http://www.w3.org/2000/svg">
<path d="M14.9152 6.77V0.770001C14.9152 0.355787 14.5794 0.0200007 14.1652 0.0200007C13.751 0.0200007 13.4152 0.355787 13.4152 0.770001V6.77C13.4152 7.18421 13.751 7.52 14.1652 7.52C14.5794 7.52 14.9152 7.18421 14.9152 6.77Z" fill="#EC9B94"/>
<path fill-rule="evenodd" clip-rule="evenodd" d="M7.52522 2.68V0.770001C7.52522 0.355787 7.86101 0.0200007 8.27522 0.0200007C8.68944 0.0200007 9.02522 0.355787 9.02522 0.770001V2.68C10.0468 3.04483 10.6576 4.09184 10.4725 5.16068C10.2874 6.22952 9.35998 7.0101 8.27522 7.0101C7.19047 7.0101 6.26307 6.22952 6.07794 5.16068C5.89281 4.09184 6.50366 3.04483 7.52522 2.68ZM7.54523 4.77C7.54523 5.17317 7.87206 5.5 8.27522 5.5C8.67839 5.5 9.00523 5.17317 9.00523 4.77C9.00523 4.57639 8.92831 4.39072 8.79141 4.25381C8.65451 4.11691 8.46883 4.04 8.27522 4.04C7.87206 4.04 7.54523 4.36683 7.54523 4.77Z" fill="#EC9B94"/>
<path fill-rule="evenodd" clip-rule="evenodd" d="M13.4552 12.49C12.6483 12.1484 12.1163 11.366 12.0952 10.49H12.1652C12.1608 9.33038 13.0458 8.36088 14.2011 8.25993C15.3563 8.15897 16.3961 8.96026 16.5929 10.1031C16.7896 11.2459 16.0777 12.3488 14.9552 12.64C14.9609 12.6831 14.9609 12.7268 14.9552 12.77V16.72C14.9552 17.1342 14.6194 17.47 14.2052 17.47C13.791 17.47 13.4552 17.1342 13.4552 16.72V12.72C13.4457 12.6436 13.4457 12.5664 13.4552 12.49ZM14.3983 11.2237C14.7899 11.2059 15.0976 10.882 15.0952 10.49H15.0552C15.0529 10.2891 14.968 10.0981 14.8204 9.96187C14.6728 9.82563 14.4756 9.75623 14.2752 9.77C13.8862 9.81834 13.6048 10.1653 13.6378 10.556C13.6709 10.9466 14.0066 11.2414 14.3983 11.2237Z" fill="#EC9B94"/>
<path d="M2.81522 6.77V0.77C2.81522 0.344741 2.47048 0 2.04522 0C1.61997 0 1.27522 0.344741 1.27522 0.77V6.77C1.27522 7.18421 1.61101 7.52 2.02522 7.52C2.43944 7.52 2.77522 7.18421 2.77522 6.77H2.81522Z" fill="#EC9B94"/>
<path fill-rule="evenodd" clip-rule="evenodd" d="M2.81522 12.9V16.77H2.77522C2.77522 17.1842 2.43944 17.52 2.02522 17.52C1.61101 17.52 1.27522 17.1842 1.27522 16.77V12.77C0.302816 12.3125 -0.202291 11.2242 0.0760326 10.1862C0.354356 9.14826 1.33619 8.45867 2.40702 8.54907C3.47786 8.63946 4.3302 9.48388 4.43058 10.5538C4.53096 11.6238 3.85056 12.612 2.81522 12.9ZM1.93887 10.0885C1.66643 10.2046 1.49117 10.4739 1.49522 10.77C1.50069 11.1693 1.82593 11.49 2.22522 11.49C2.52139 11.49 2.78818 11.311 2.90056 11.037C3.01294 10.763 2.94863 10.4482 2.73777 10.2403C2.52691 10.0323 2.2113 9.97234 1.93887 10.0885Z" fill="#EC9B94"/>
<path d="M9.02522 16.77V8.77C9.02522 8.35579 8.68944 8.02 8.27522 8.02C7.86101 8.02 7.52522 8.35579 7.52522 8.77V16.77C7.52522 17.1842 7.86101 17.52 8.27522 17.52C8.68944 17.52 9.02522 17.1842 9.02522 16.77Z" fill="#EC9B94"/>
</svg>
