<svg width="80" height="13" xmlns="http://www.w3.org/2000/svg" xmlns:xlink="http://www.w3.org/1999/xlink" xml:space="preserve" overflow="hidden"><defs><clipPath id="clip0"><rect x="2093" y="732" width="80" height="13"/></clipPath></defs><g clip-path="url(#clip0)" transform="translate(-2093 -732)"><path d="M2093 738.5C2093 734.91 2095.91 732 2099.5 732 2103.09 732 2106 734.91 2106 738.5 2106 742.09 2103.09 745 2099.5 745 2095.91 745 2093 742.09 2093 738.5Z" fill="#01748E" fill-rule="evenodd"/><path d="M2127 738.5C2127 734.91 2129.91 732 2133.5 732 2137.09 732 2140 734.91 2140 738.5 2140 742.09 2137.09 745 2133.5 745 2129.91 745 2127 742.09 2127 738.5Z" fill="#01748E" fill-rule="evenodd"/><path d="M2160 738.5C2160 734.91 2162.91 732 2166.5 732 2170.09 732 2173 734.91 2173 738.5 2173 742.09 2170.09 745 2166.5 745 2162.91 745 2160 742.09 2160 738.5Z" fill="#01748E" fill-rule="evenodd"/></g></svg>