<svg width="330" height="330" xmlns="http://www.w3.org/2000/svg" xmlns:xlink="http://www.w3.org/1999/xlink" xml:space="preserve" overflow="hidden"><g transform="translate(-1080 -264)"><path d="M1102.57 442.606 1124.88 464.908 1141.88 448.814 1141.88 559.542 1227.81 559.577 1227.81 473.746 1262.19 473.746 1262.19 559.591 1348.13 559.625 1348.13 448.669 1365.21 464.826 1387.43 442.609 1245 307.312ZM1341.25 552.75 1269.06 552.719 1269.06 466.871 1220.94 466.871 1220.94 552.698 1148.75 552.671 1148.75 442.303 1245 351.154 1341.25 442.169ZM1125.01 455.318 1112.43 442.75 1245 316.786 1377.57 442.75 1365.07 455.235 1245 341.688Z" fill="#01748E"/><path d="M1119.5 556.5 1366.35 556.5" stroke="#00718B" stroke-width="6.875" stroke-miterlimit="8" fill="none" fill-rule="evenodd"/></g></svg>