<svg width="367" height="367" xmlns="http://www.w3.org/2000/svg" xmlns:xlink="http://www.w3.org/1999/xlink" xml:space="preserve" overflow="hidden"><g transform="translate(-3809 -836)"><g><g><g><path d="M3921.82 1021.84 3921.87 1021.84C3922.9 1021.84 3947.49 1021.39 3959.6 1014.99 3959.7 1014.94 3959.81 1014.87 3959.91 1014.81 3964.93 1011.13 3969.65 1007.06 3974.04 1002.64 3974.83 1001.89 3975.59 1001.17 3976.33 1000.46 3980.89 1001.96 3985.61 1002.83 3990.4 1003.06 3991.28 1003.1 3992.16 1003.12 3993.04 1003.12 3997.8 1003.11 4002.54 1002.49 4007.14 1001.26 4007.76 1001.85 4008.4 1002.45 4009.08 1003.09 4013.26 1007.2 4017.68 1011.05 4022.33 1014.62 4033.58 1022.76 4061.71 1016.63 4064.88 1015.91 4066.21 1015.59 4067.23 1014.51 4067.47 1013.16 4067.7 1011.79 4067.09 1010.41 4065.93 1009.65 4065.86 1009.61 4058.89 1004.91 4054.41 987.202 4052.94 981.458 4055.49 969.936 4058.19 957.736 4061.15 946.344 4062.95 934.684 4063.57 922.932 4063.57 905.486 4058.41 894.802 4047.36 889.316 4041.67 887.105 4035.43 886.729 4029.51 888.24 4026.42 884.084 4018.19 875.332 4000.94 869.96 3982.32 864.838 3962.42 867.403 3945.7 877.082 3931.31 886.363 3924.41 896.745 3924.09 930.518 3923.96 944.756 3924.8 958.018 3925.54 969.73 3926.54 979.417 3926.71 989.171 3926.04 998.886 3925.24 1005.21 3922.84 1011.23 3919.06 1016.36 3917.93 1017.89 3918.26 1020.04 3919.79 1021.17 3920.37 1021.6 3921.08 1021.83 3921.81 1021.84ZM3990.71 996.195C3966.13 994.857 3946.46 975.308 3944.97 950.737 3944.88 949.075 3944.88 947.409 3944.97 945.746 3945.13 942.252 3947.94 939.466 3951.44 939.342 3953.92 939.302 3956.38 939.072 3958.82 938.655 3970 937.178 3980.91 934.1 3991.21 929.514 4002.53 923.817 4013.04 916.635 4022.46 908.157 4023.32 913.513 4025.22 918.647 4028.07 923.265 4028.13 923.375 4028.21 923.481 4028.29 923.581 4029.65 925.203 4031.22 926.632 4032.96 927.83L4033.52 928.253C4034.17 928.755 4034.77 929.319 4035.31 929.937 4038.51 933.619 4040.46 938.226 4040.87 943.089 4041.05 944.762 4041.13 946.443 4041.12 948.125 4041.12 974.704 4019.58 996.25 3993 996.249 3992.24 996.249 3991.48 996.231 3990.71 996.195ZM3932.41 969.293C3931.67 957.705 3930.84 944.567 3930.97 930.58 3931.26 899.77 3936.9 890.956 3949.28 882.953 3964.33 874.265 3982.24 871.957 3999.01 876.546 4018.7 882.682 4024.89 893.658 4024.94 893.733 4025.71 895.188 4027.4 895.895 4028.97 895.418 4031.61 894.624 4039.52 893.077 4044.29 895.449 4050.06 898.309 4056.67 904.018 4056.67 922.887 4056.03 934.146 4054.28 945.315 4051.45 956.231 4048.45 969.816 4045.86 981.551 4047.73 988.887 4049.41 996.612 4052.62 1003.93 4057.15 1010.4 4047.36 1012.01 4032.26 1013.34 4026.34 1009.06 4022.19 1005.86 4018.23 1002.42 4014.48 998.746 4034.8 990.133 4048 970.198 4048 948.125 4048 946.203 4047.9 944.282 4047.7 942.371 4047.14 936.062 4044.59 930.096 4040.41 925.334 4039.58 924.391 4038.66 923.529 4037.66 922.76L4037.08 922.32C4035.88 921.503 4034.79 920.552 4033.81 919.484 4031.4 915.515 4029.82 911.1 4029.16 906.504 4028.63 902.935 4025.31 900.47 4021.74 900.997 4020.41 901.194 4019.18 901.796 4018.2 902.722 4009.19 910.89 3999.12 917.805 3988.26 923.282 3978.56 927.582 3968.29 930.465 3957.77 931.845 3955.62 932.217 3953.45 932.422 3951.27 932.46 3944.17 932.684 3938.44 938.314 3938.09 945.399L3938.09 945.399C3938 947.297 3938.01 949.208 3938.09 951.088 3939.31 971.112 3951.26 988.912 3969.33 997.625L3969.29 997.663C3965.23 1001.76 3960.86 1005.55 3956.23 1009.01 3949.01 1012.74 3936 1014.16 3928.2 1014.67 3930.61 1010.04 3932.19 1005.02 3932.84 999.832 3933.62 989.66 3933.47 979.439 3932.41 969.293Z" stroke="#01748E" stroke-width="6.875" fill="#00718B"/><path d="M4091.08 1049.62C4075.3 1037.47 4057.23 1028.65 4037.95 1023.68 4033.5 1022.35 4029.03 1021.2 4024.66 1020.26L4022.91 1019.89 4021.6 1021.1C4007.6 1034.06 3998.1 1034.06 3993 1034.06 3987.9 1034.06 3978.33 1034.06 3964.39 1021.27L3963.08 1020.08 3961.36 1020.44C3957.15 1021.33 3952.71 1022.41 3948.11 1023.67 3929.06 1029.25 3911.09 1038.02 3894.96 1049.59 3887.56 1055.39 3883.17 1064.2 3883 1073.59L3883 1126.88 3889.88 1126.88 3889.88 1073.59C3890.03 1066.34 3893.42 1059.54 3899.11 1055.06 3914.55 1044.01 3931.73 1035.64 3949.95 1030.31 3953.76 1029.28 3957.51 1028.34 3961.07 1027.56 3974.44 1039.31 3984.7 1040.94 3993 1040.94 4001.3 1040.94 4011.51 1039.29 4024.93 1027.36 4028.58 1028.19 4032.29 1029.16 4036.01 1030.28 4054.42 1035 4071.68 1043.39 4086.76 1054.96 4092.52 1059.45 4095.96 1066.29 4096.12 1073.59L4096.12 1126.88 4103 1126.88 4103 1073.59C4102.83 1064.22 4098.46 1055.41 4091.08 1049.62Z" stroke="#01748E" stroke-width="6.875" fill="#00718B"/></g></g></g><path d="M3817 1019.5C3817 922.574 3895.57 844 3992.5 844 4089.43 844 4168 922.574 4168 1019.5 4168 1116.43 4089.43 1195 3992.5 1195 3895.57 1195 3817 1116.43 3817 1019.5Z" stroke="#01748E" stroke-width="16.0417" stroke-miterlimit="8" fill="none" fill-rule="evenodd"/></g></svg>