<svg width="292" height="339" xmlns="http://www.w3.org/2000/svg" xmlns:xlink="http://www.w3.org/1999/xlink" xml:space="preserve" overflow="hidden"><g transform="translate(-1897 -258)"><path d="M2110 490.5C2110 476.969 2127.01 466 2148 466 2168.99 466 2186 476.969 2186 490.5 2186 504.031 2168.99 515 2148 515 2127.01 515 2110 504.031 2110 490.5Z" stroke="#01748E" stroke-width="5.72917" stroke-miterlimit="8" fill="#FFFFFF" fill-rule="evenodd"/><path d="M2035 570C2035 556.745 2052.01 546 2073 546 2093.99 546 2111 556.745 2111 570 2111 583.255 2093.99 594 2073 594 2052.01 594 2035 583.255 2035 570Z" stroke="#01748E" stroke-width="5.72917" stroke-miterlimit="8" fill="#FFFFFF" fill-rule="evenodd"/><path d="M0 0 48.0323 38.0121" stroke="#156082" stroke-width="5.72917" stroke-miterlimit="8" fill="none" fill-rule="evenodd" transform="matrix(1 0 0 -1 2100 553.012)"/><path d="M2120.64 473.131 2057 466" stroke="#156082" stroke-width="5.72917" stroke-miterlimit="8" fill="none" fill-rule="evenodd"/><path d="M1981 466C1981 452.745 1998.01 442 2019 442 2039.99 442 2057 452.745 2057 466 2057 479.255 2039.99 490 2019 490 1998.01 490 1981 479.255 1981 466Z" stroke="#01748E" stroke-width="5.72917" stroke-miterlimit="8" fill="#FFFFFF" fill-rule="evenodd"/><g><g><g><path d="M121 110.917C108.396 110.917 98.3125 100.833 98.3125 88.2292 98.3125 75.625 108.396 65.5417 121 65.5417 133.604 65.5417 143.688 75.625 143.688 88.2292 143.688 100.833 133.604 110.917 121 110.917ZM121 35.2917C103.606 35.2917 87.2208 43.8625 77.3896 58.4833 67.5583 72.8521 65.5417 91.2542 71.8438 107.64L95.7917 160.577 116.463 203.935C117.219 205.7 118.983 206.708 121 206.708 123.017 206.708 124.781 205.7 125.537 203.935L146.208 160.577 170.156 107.64C176.458 91.2542 174.442 72.8521 164.61 58.4833 154.779 43.8625 138.394 35.2917 121 35.2917Z" stroke="#156082" stroke-width="5.7619" fill="#FFFFFF" transform="matrix(1.00413 0 0 1 1897 258)"/></g></g></g></g></svg>